<?xml version="1.0" encoding="UTF-8" standalone="no"?>
<!DOCTYPE svg PUBLIC "-//W3C//DTD SVG 1.1//EN" "http://www.w3.org/Graphics/SVG/1.1/DTD/svg11.dtd">
<svg width="100%" height="100%" viewBox="0 0 2042 1263" version="1.1" xmlns="http://www.w3.org/2000/svg" xmlns:xlink="http://www.w3.org/1999/xlink" xml:space="preserve" xmlns:serif="http://www.serif.com/" style="fill-rule:evenodd;clip-rule:evenodd;stroke-linejoin:round;stroke-miterlimit:2;">
    <g transform="matrix(1,0,0,1,-144,-125)">
        <g id="Layer-1" serif:id="Layer 1" transform="matrix(4.16667,0,0,4.16667,0,0)">
            <g transform="matrix(1,0,0,1,185.053,326.312)">
                <path d="M0,-284.12C-78.338,-284.12 -142.073,-220.395 -142.073,-142.067C-142.073,-63.731 -78.338,0 0,0L191.332,0C269.66,0 333.386,-63.731 333.386,-142.067C333.386,-220.395 269.66,-284.12 191.332,-284.12L0,-284.12Z" style="fill:white;fill-rule:nonzero;"/>
            </g>
            <g transform="matrix(1,0,0,1,185.053,326.31)">
                <path d="M0,-284.119C-78.338,-284.119 -142.073,-220.394 -142.073,-142.066C-142.073,-63.73 -78.338,0.001 0,0.001L191.332,0.001C269.66,0.001 333.386,-63.73 333.386,-142.066C333.386,-220.394 269.66,-284.119 191.332,-284.119L0,-284.119ZM191.332,2.886L0,2.886C-79.93,2.886 -144.958,-62.139 -144.958,-142.066C-144.958,-221.985 -79.93,-287.005 0,-287.005L191.332,-287.005C271.252,-287.005 336.271,-221.985 336.271,-142.066C336.271,-62.139 271.252,2.886 191.332,2.886" style="fill:white;fill-rule:nonzero;"/>
            </g>
            <g transform="matrix(0.643575,0.765383,0.765383,-0.643575,430.336,145.75)">
                <path d="M9.628,-34.885L108.488,-34.885C102.393,-12.544 89.706,8.235 70.675,24.237C50.589,41.126 26.464,50.147 2.087,51.636L9.628,-34.885Z" style="fill:rgb(227,30,40);fill-rule:nonzero;"/>
            </g>
            <g transform="matrix(1,0,0,1,229.541,118.386)">
                <path d="M0,-10.658C47.513,-10.658 83.313,1.431 86.998,41.463L137.002,-10.664L236.571,-10.664C214.911,-36.016 182.723,-52.121 146.844,-52.121L-44.488,-52.121C-80.38,-52.121 -112.574,-36.016 -134.235,-10.658L0,-10.658Z" style="fill:rgb(227,30,40);fill-rule:nonzero;"/>
            </g>
            <g transform="matrix(1,0,0,1,151.257,204.844)">
                <path d="M0,-46.65L-16.967,0L51.488,0C71.725,0 77.848,-8.378 82.377,-24.507C86.859,-40.46 75.601,-46.65 61.771,-46.65L0,-46.65Z" style="fill:rgb(227,30,40);fill-rule:nonzero;"/>
            </g>
            <g transform="matrix(1,0,0,1,366.958,235.41)">
                <path d="M0,22.196L-52.885,-44.639C-62.668,0.93 -94.677,22.188 -154.682,22.188L-274.269,22.188C-252.635,49.373 -219.274,66.835 -181.906,66.835L9.427,66.835C46.782,66.835 80.136,49.38 101.771,22.196L0,22.196Z" style="fill:rgb(227,30,40);fill-rule:nonzero;"/>
            </g>
        </g>
    </g>
</svg>
