<?xml version="1.0" encoding="UTF-8" standalone="no"?>
<!DOCTYPE svg PUBLIC "-//W3C//DTD SVG 1.1//EN" "http://www.w3.org/Graphics/SVG/1.1/DTD/svg11.dtd">
<svg width="100%" height="100%" viewBox="0 0 627 608" version="1.1" xmlns="http://www.w3.org/2000/svg" xmlns:xlink="http://www.w3.org/1999/xlink" xml:space="preserve" xmlns:serif="http://www.serif.com/" style="fill-rule:evenodd;clip-rule:evenodd;stroke-linejoin:round;stroke-miterlimit:2;">
    <g transform="matrix(1,0,0,1,-96,-111)">
        <g>
            <path d="M293.148,149.173C258.85,149.173 224.339,160.752 195.974,181.777C153.881,211.885 128.922,269.125 135.273,320.979C139.968,374.986 161.698,417.248 179.102,443.192C198.366,471.949 222.64,498.296 253.31,523.739C294.234,557.325 332.136,578.367 362.59,595.275C369.956,599.364 376.913,603.227 383.145,606.856C400.184,616.779 425.779,633.118 444.252,645.076C455.173,652.147 464.369,658.179 470.16,661.994C472.024,663.222 473.566,664.238 474.844,665.081C458.5,652.553 410.954,616.447 387.508,599.699L382.652,596.148C353.53,574.865 313.646,545.717 272.285,503.239C214.072,443.504 183.922,381.237 182.672,318.166C181.16,280.422 197.962,245.756 227.617,225.439C243.479,214.146 263.442,207.075 283.826,205.529C289.27,204.654 294.774,204.171 300.166,204.096C324.406,203.771 347.332,212.282 366.448,228.698C383.45,243.299 396.976,264.002 404.595,287.064C418.244,240.509 464.683,203.009 512.966,199.684L513.611,199.539C520.748,198.096 528.159,197.364 535.64,197.364C562.425,197.364 589.205,206.62 609.113,222.759C632.694,241.329 646.041,269.445 646.692,301.925C647.742,363.101 614.913,410.689 597.276,436.255C580.998,458.354 568.104,471.271 563.25,476.134C563.19,476.194 563.131,476.254 563.072,476.313C568.739,472.323 583.576,461.851 603.662,441.69C619.386,425.845 633.277,408.146 644.949,389.087C656.66,370.649 671.312,340.71 674.614,302.765C677.963,271.29 669.239,226.238 634.715,194.171C606.397,166.952 566.993,151.343 526.603,151.343C519.711,151.343 512.737,151.797 505.874,152.692C480.037,155.824 453.391,168.293 434.593,186.048C429.896,190.381 425.342,195.125 420.667,200.554C416.818,205.103 413.343,209.333 410.043,213.484L409.814,213.771L409.631,213.453C397.703,192.794 380.25,175.739 360.488,165.429C339.52,154.643 316.863,149.173 293.148,149.173ZM480.511,669.466C480.24,669.255 415.894,626.508 382.893,607.288C376.666,603.661 369.71,599.801 362.348,595.713C331.875,578.795 293.952,557.74 252.992,524.125C222.283,498.649 197.978,472.268 178.686,443.471C161.25,417.478 139.479,375.135 134.776,321.03C131.805,296.777 135.721,269.945 145.804,245.485C156.681,219.102 173.928,196.932 195.68,181.373C224.127,160.287 258.743,148.673 293.148,148.673C316.943,148.673 339.677,154.161 360.718,164.985C380.463,175.286 397.91,192.289 409.88,212.886C413.114,208.823 416.521,204.679 420.287,200.229C424.976,194.784 429.543,190.026 434.251,185.683C453.122,167.859 479.875,155.34 505.812,152.196C512.693,151.298 519.69,150.843 526.603,150.843C567.121,150.843 606.651,166.503 635.058,193.808C669.715,225.997 678.473,271.223 675.112,302.813C671.801,340.854 657.112,370.871 645.373,389.352C633.684,408.44 619.769,426.169 604.017,442.043C583.799,462.336 568.889,472.83 563.275,476.78C562.096,477.611 561.316,478.159 561.151,478.34L560.741,478.063C560.852,477.835 561.381,477.299 562.896,475.78C567.743,470.925 580.618,458.027 596.869,435.965C614.47,410.451 647.239,362.949 646.192,301.935C645.544,269.607 632.265,241.627 608.802,223.149C588.978,207.079 562.312,197.864 535.64,197.864C528.192,197.864 520.814,198.592 513.711,200.029L513.036,200.178C464.646,203.512 418.151,241.258 404.85,287.982L404.625,288.773L404.371,287.991C387.961,237.325 347.606,204.586 301.563,204.586C301.102,204.586 300.636,204.59 300.172,204.596C294.805,204.671 289.325,205.151 283.885,206.025C263.569,207.566 243.695,214.606 227.903,225.849C198.387,246.07 181.667,280.575 183.172,318.151C184.42,381.096 214.522,443.249 272.643,502.89C313.975,545.338 353.839,574.472 382.947,595.745L387.801,599.295C411.797,616.436 480.844,668.692 480.92,669.241L480.9,669.244C480.931,669.296 480.92,669.326 480.906,669.361L480.672,669.275L480.511,669.466Z" style="fill:rgb(209,0,0);fill-rule:nonzero;"/>
            <path d="M630.094,198.653C598.612,168.393 551.302,150.557 501.051,157.109C476.24,160.117 449.174,172.073 429.63,190.532C424.672,195.105 420.046,199.993 415.687,205.056C412.146,209.24 408.577,213.564 405.057,217.993C393.661,198.257 376.66,180.749 355.813,169.873C298.979,140.636 235.053,153.613 191.034,186.241C145.209,219.019 124.354,277.666 130.233,325.674C134.304,372.495 151.741,414.658 174.103,447.997C196.571,481.536 222.958,507.524 248.359,528.596C299.532,570.593 346.324,594.922 378.228,611.737C410.408,628.173 480.699,669.202 480.672,669.275C480.724,669.212 412.092,625.04 382.862,604.16C354,583.024 311.41,552.647 267.673,507.729C224.632,463.563 179.664,400.162 178.131,322.826C176.671,286.389 192.205,251.385 222.967,230.31C238.879,218.982 258.997,211.964 279.054,210.443C284.38,209.588 289.826,209.088 295.378,209.011C346.148,208.306 389.583,241.522 404.609,287.914C417.602,242.277 458.479,208.021 508.193,204.598C508.421,204.55 508.643,204.495 508.87,204.449C542.971,197.553 579.445,207.579 604.165,227.618C629.581,247.634 641.063,277.25 641.651,306.595C642.676,366.276 611.823,412.447 592.279,440.778C571.749,468.648 556.643,481.865 556.176,482.837C557.158,481.756 574.229,471.441 599.048,446.532C611.897,433.582 626.609,416.354 640.371,393.883C654.416,371.771 667.041,342.275 670.072,307.452C673.726,273.111 662.602,228.847 630.094,198.653Z" style="fill:url(#_Linear1);"/>
        </g>
    </g>
    <defs>
        <linearGradient id="_Linear1" x1="0" y1="0" x2="1" y2="0" gradientUnits="userSpaceOnUse" gradientTransform="matrix(388.729,234.104,-234.104,388.729,136.663,183.048)"><stop offset="0" style="stop-color:rgb(255,0,0);stop-opacity:1"/><stop offset="1" style="stop-color:rgb(186,14,14);stop-opacity:1"/></linearGradient>
    </defs>
</svg>
