<?xml version="1.0" encoding="UTF-8" standalone="no"?>
<!DOCTYPE svg PUBLIC "-//W3C//DTD SVG 1.1//EN" "http://www.w3.org/Graphics/SVG/1.1/DTD/svg11.dtd">
<svg width="100%" height="100%" viewBox="0 0 453 199" version="1.1" xmlns="http://www.w3.org/2000/svg" xmlns:xlink="http://www.w3.org/1999/xlink" xml:space="preserve" xmlns:serif="http://www.serif.com/" style="fill-rule:evenodd;clip-rule:evenodd;stroke-linejoin:round;stroke-miterlimit:2;">
    <g transform="matrix(1,0,0,1,-26,-169)">
        <path d="M199.9,298.8L199.9,250.3C199.9,226.8 187.3,214.1 166,214.1C158.1,214.1 151.1,220.3 148,225.2L148,201.5C148,193.8 143.2,188.3 133.4,188.3L126.9,188.3L126.9,285.1C126.9,293.5 131.3,298.9 141,298.9L147.7,298.9L147.7,251.9C147.7,237.3 156.1,232.4 162.6,232.4C171.6,232.4 179,237.8 179,251.3L179,285.1C179,294 184.4,298.9 193,298.8L199.9,298.8Z" style="fill:rgb(38,146,216);fill-rule:nonzero;"/>
        <path d="M172.9,317.4C167.4,317.4 164.9,321.2 164.9,325L164.9,332.8C164.9,334.4 166.1,335.7 168,335.7L169.3,335.7L169.3,325.4C169.3,322.9 170.6,321.4 172.5,321.4C174.8,321.4 176.1,322.7 176.1,325.7L176.1,332.8C176.1,334.4 177.3,335.7 179.3,335.7L180.6,335.7L180.6,325.3C180.6,320.2 177.1,317.4 172.9,317.4Z" style="fill:rgb(38,146,216);fill-rule:nonzero;"/>
        <path d="M253.5,214.2C224.3,214.2 212,233.2 212,260.7L212,310.8C212,319.7 219,325.1 226.4,325.1L232.9,325.1L232.9,288.5C237.1,295.6 244.6,300.8 253.8,300.8C278,300.8 291.2,281.6 291.1,255.1C291.1,234.2 275.5,214.2 253.5,214.2ZM253,282.5C240.7,282.5 232.6,273.1 232.6,256.5C232.6,242.2 238.9,232.4 250.3,232.4C263.5,232.4 270,240.9 269.9,260.4C269.9,273.6 263,282.5 253,282.5Z" style="fill:rgb(38,146,216);fill-rule:nonzero;"/>
        <path d="M253.4,317.6C247.3,317.6 243.8,322 243.8,327.1C243.8,332.2 248,336 252.9,336C256.1,336 258.2,334.5 258.2,332.3L258.2,330.2L258,330.2C257.4,331.1 255.8,331.9 253.3,331.9C250.3,331.9 248.4,329.6 248.4,326.4C248.4,323.8 250.7,321.7 253.3,321.7C255.8,321.7 257.5,322.6 258.1,323.6L258.3,323.6L258.3,321.4C258.3,319.3 256.2,317.6 253.4,317.6Z" style="fill:rgb(38,146,216);fill-rule:nonzero;"/>
        <path d="M156.6,316.5C158,316.5 159.2,315.3 159.2,313.9C159.2,312.5 158,311.3 156.6,311.3C155.2,311.3 154,312.5 154,313.9C154,315.3 155.1,316.5 156.6,316.5Z" style="fill:rgb(38,146,216);fill-rule:nonzero;"/>
        <path d="M98.2,317.7C93.5,317.7 91.6,321.1 91.6,324.7L91.6,332.9C91.6,334.7 92.8,335.7 94.8,335.7L96,335.7L96,325.4C96,322.7 97.1,321.6 99.1,321.6C100.3,321.6 101,321.8 101.7,322.1L101.9,322.1L101.9,320.6C101.9,319.3 100.9,317.7 98.2,317.7Z" style="fill:rgb(38,146,216);fill-rule:nonzero;"/>
        <path d="M158.9,329.8L158.9,321.5C158.9,319.3 157.7,318.2 155.7,318.2L154.4,318.2L154.4,330.3C154.4,333.9 156.3,335.9 159.7,335.9C161.5,335.9 162.3,335.1 162.3,333.2L162.4,333.2L162.4,332.1L161.6,332.1C159.7,332.1 158.9,331.6 158.9,329.8Z" style="fill:rgb(38,146,216);fill-rule:nonzero;"/>
        <path d="M83.5,317.6C77.4,317.6 73.9,322 73.9,327.1C73.9,332.2 78.1,336 83,336C86.2,336 88.3,334.5 88.3,332.3L88.3,330.2L88.1,330.2C87.5,331.1 85.9,331.9 83.4,331.9C80.4,331.9 78.5,329.6 78.5,326.4C78.5,323.8 80.8,321.7 83.4,321.7C85.9,321.7 87.6,322.6 88.2,323.6L88.4,323.6L88.4,321.4C88.4,319.3 86.3,317.6 83.5,317.6Z" style="fill:rgb(38,146,216);fill-rule:nonzero;"/>
        <path d="M117.7,255.1C117.7,234.2 102.1,214.2 80.1,214.2C50.9,214.2 38.6,233.2 38.6,260.7L38.6,310.8C38.6,319.7 45.6,325.1 53,325.1L59.4,325.1L59.4,288.5C63.5,295.5 71.1,300.8 80.4,300.9C104.5,300.9 117.7,281.7 117.7,255.1ZM59,256.5C59,242.2 65.3,232.4 76.7,232.4C89.9,232.4 96.4,240.9 96.4,260.4C96.4,273.6 89.5,282.5 79.4,282.5C67.1,282.5 59,273.1 59,256.5Z" style="fill:rgb(38,146,216);fill-rule:nonzero;"/>
        <path d="M299.9,317.5C297.8,317.5 295.8,318.6 294.8,320.3C293.5,318.6 291.7,317.5 289.4,317.5C284,317.5 281.5,320.7 281.5,325.6L281.5,332.5C281.5,334.5 282.9,335.7 284.7,335.7L285.9,335.7L285.9,325.2C285.9,322.8 287.2,321.4 288.9,321.4C290.8,321.4 292.2,322.7 292.2,325.6L292.2,332.5C292.2,334.6 293.4,335.7 295.4,335.7L296.6,335.7L296.6,325.1C296.6,322.7 297.8,321.4 299.6,321.4C301.6,321.4 302.9,322.7 302.9,325.6L302.9,332.5C302.9,334.6 303.9,335.7 306.3,335.7L307.3,335.7L307.3,325C307.3,320 304,317.5 299.9,317.5Z" style="fill:rgb(38,146,216);fill-rule:nonzero;"/>
        <path d="M145,313.9L144,313.9C143.3,313.9 142.5,314.4 141.9,315.1C140.9,316.2 140.6,316.8 140.6,318.6L140.6,329.3C140.6,333.5 142.8,335.9 147.3,335.9C149.9,335.9 151.2,334.7 151.2,332.9L151.2,331.3L151,331.3C150.3,331.7 149.2,331.9 147.8,331.9C146,331.9 145,331 145,328.7L145,321.7L148.6,321.7C150.4,321.7 151.2,320.5 151.2,319.6L151.2,317.9L145,317.9L145,313.9Z" style="fill:rgb(38,146,216);fill-rule:nonzero;"/>
        <path d="M442.9,243.3C453.3,240.2 459.6,232.7 459.6,221C459.6,203.8 445.3,193.2 425.2,193.2L412.5,193.2C403.7,193.2 389.8,196.2 384.7,198L384.7,274.4C384.7,290.8 394.3,299.4 414,299.4L425.4,299.4C444.6,299.4 461.5,287.6 461.5,266.3C461.5,257.1 453.5,246.2 442.9,243.3ZM405.4,211.9C408.4,211.4 411.9,210.8 414.5,210.8L422.3,210.8C430.2,210.8 438.6,213.7 438.6,222.9C438.6,232 430.9,235.6 421.5,235.7L405.4,235.7L405.4,211.9ZM423.4,280.2L414.8,280.2C409.6,280.2 405.6,277.3 405.6,273.6L405.6,251.9L422.3,251.9C434.6,251.9 440.3,255.6 440.3,267C440.3,275 434.8,280.2 423.4,280.2Z" style="fill:rgb(38,146,216);fill-rule:nonzero;"/>
        <path d="M397.6,313.9L396.6,313.9C395.9,313.9 395.1,314.4 394.5,315.1C393.5,316.2 393.2,316.8 393.2,318.6L393.2,329.3C393.2,333.5 395.4,335.9 399.9,335.9C402.5,335.9 403.8,334.7 403.8,332.9L403.8,331.3L403.6,331.3C402.9,331.7 401.8,331.9 400.4,331.9C398.6,331.9 397.6,331 397.6,328.7L397.6,321.7L401.1,321.7C402.9,321.7 403.7,320.5 403.7,319.6L403.8,319.6L403.8,317.9L397.6,317.9L397.6,313.9Z" style="fill:rgb(38,146,216);fill-rule:nonzero;"/>
        <path d="M387.1,329.8L387.1,321.5C387.1,319.3 385.9,318.2 383.9,318.2L382.6,318.2L382.6,330.3C382.6,333.9 384.5,335.9 387.9,335.9C389.7,335.9 390.5,335.1 390.5,333.2L390.6,333.2L390.6,332.1L389.8,332.1C387.9,332.1 387.1,331.6 387.1,329.8Z" style="fill:rgb(38,146,216);fill-rule:nonzero;"/>
        <path d="M411.5,329.8L411.5,321.5C411.5,319.3 410.3,318.2 408.3,318.2L407,318.2L407,330.3C407,333.9 408.9,335.9 412.3,335.9C414.1,335.9 414.9,335.1 414.9,333.2L415,333.2L415,332.1L414.2,332.1C412.3,332.1 411.5,331.6 411.5,329.8Z" style="fill:rgb(38,146,216);fill-rule:nonzero;"/>
        <path d="M409.1,316.5C410.5,316.5 411.7,315.3 411.7,313.9C411.7,312.5 410.5,311.3 409.1,311.3C407.7,311.3 406.5,312.5 406.5,313.9C406.5,315.3 407.7,316.5 409.1,316.5Z" style="fill:rgb(38,146,216);fill-rule:nonzero;"/>
        <path d="M330.1,317.5C328,317.5 326,318.6 325,320.3C323.7,318.6 321.9,317.5 319.6,317.5C314.2,317.5 311.7,320.7 311.7,325.6L311.7,332.5C311.7,334.5 313.1,335.7 314.9,335.7L316.1,335.7L316.1,325.2C316.1,322.8 317.4,321.4 319.1,321.4C321,321.4 322.4,322.7 322.4,325.6L322.4,332.5C322.4,334.6 323.6,335.7 325.6,335.7L326.8,335.7L326.8,325.1C326.8,322.7 328,321.4 329.8,321.4C331.8,321.4 333.1,322.7 333.1,325.6L333.1,332.5C333.1,334.6 334.1,335.7 336.5,335.7L337.5,335.7L337.5,325C337.5,320 334.2,317.5 330.1,317.5Z" style="fill:rgb(38,146,216);fill-rule:nonzero;"/>
        <path d="M384.7,316.5C386.1,316.5 387.3,315.3 387.3,313.9C387.3,312.5 386.1,311.3 384.7,311.3C383.3,311.3 382.1,312.5 382.1,313.9C382.1,315.3 383.3,316.5 384.7,316.5Z" style="fill:rgb(38,146,216);fill-rule:nonzero;"/>
        <path d="M443,325C439.9,324.5 439.4,324.1 439.4,323.2C439.4,322 440.3,321.2 443,321.2C445.1,321.2 447.2,322 448.1,322.9L448.3,322.9L448.3,321.2C448.3,319.5 446.6,317.4 442.6,317.4C438,317.4 435,320.3 435,323.6C435,326.3 436.8,327.8 440.6,328.3C443.7,328.8 444.3,329.3 444.3,330.3C444.3,331.7 443.3,332.3 441.1,332.3C438.9,332.3 436.7,331.5 435.7,330.6L435.5,330.6L435.5,332.6C435.5,334.4 437.9,336.1 441.2,336.1C446,336.1 448.7,333.8 448.7,330.1C448.7,327.2 446.7,325.6 443,325Z" style="fill:rgb(38,146,216);fill-rule:nonzero;"/>
        <path d="M376.3,266.3C376.3,257.1 368.3,246.2 357.7,243.3C368.1,240.2 374.4,232.7 374.4,221C374.4,203.8 360.1,193.2 340,193.2L327.3,193.2C318.5,193.2 304.6,196.2 299.5,198L299.5,274.4C299.5,290.8 309.1,299.4 328.8,299.4L328.8,299.3L340.2,299.3C359.4,299.3 376.3,287.5 376.3,266.3ZM320.2,211.9C323.2,211.4 326.7,210.8 329.3,210.8L337.1,210.8C345,210.8 353.4,213.7 353.4,222.9C353.4,232 345.7,235.6 336.3,235.7L320.2,235.7L320.2,211.9ZM338.2,280.2L329.6,280.2C324.4,280.2 320.4,277.3 320.4,273.6L320.4,251.9L337.1,251.9C349.4,251.9 355.1,255.6 355.1,267C355.1,275 349.6,280.2 338.2,280.2Z" style="fill:rgb(38,146,216);fill-rule:nonzero;"/>
        <path d="M353.9,317.9L353.1,317.9L353.1,327.9C353.1,330.9 351.8,332.2 350,332.2C348,332.2 346.4,330.9 346.4,327.6L346.4,321C346.4,318.9 345.2,317.8 342.7,317.8L341.9,317.8L341.9,328C341.9,333.2 345.4,336.1 349.8,336.1C355,336.1 357.6,333.3 357.6,327.7L357.6,321.1C357.6,319 356.5,317.9 353.9,317.9Z" style="fill:rgb(38,146,216);fill-rule:nonzero;"/>
        <path d="M369.9,317.4C364.4,317.4 361.9,321.2 361.9,325L361.9,332.8C361.9,334.4 363.1,335.7 365,335.7L366.4,335.7L366.4,325.4C366.4,322.9 367.7,321.4 369.6,321.4C371.9,321.4 373.2,322.7 373.2,325.7L373.2,332.8C373.2,334.4 374.4,335.7 376.4,335.7L377.6,335.7L377.6,325.3C377.6,320.2 374.1,317.4 369.9,317.4Z" style="fill:rgb(38,146,216);fill-rule:nonzero;"/>
        <path d="M426.2,332.3C423.5,332.3 421.5,330.9 421.1,328.5L424,328.5C429.9,328.5 432.4,327.5 432.4,324.2C432.4,319.9 429,317.3 425.3,317.3C420.2,317.3 416.6,321 416.6,327C416.6,332.5 421,336 425.4,336C430.3,336 431.9,334.3 431.9,332L431.9,330.6L431.7,330.6C430.2,331.9 428.1,332.3 426.2,332.3ZM421.2,324.9C421.3,322.9 422.7,321.1 424.9,321.1C427,321.1 428.3,322 428.3,323.8C428.3,325 427.3,325.5 423.2,325.5L421.2,325.5L421.2,324.9Z" style="fill:rgb(38,146,216);fill-rule:nonzero;"/>
        <path d="M269.5,317.4C263.8,317.4 260.7,321.7 260.7,327.1C260.7,331.8 263.7,336.1 269.1,336.1C274.9,336.1 278,331.8 277.9,326.4C277.9,321.7 274.9,317.4 269.5,317.4ZM269.5,332.2C266.6,332.2 265.3,330 265.3,326.5C265.3,323.5 266.6,321.4 269.1,321.4C272,321.4 273.4,323.5 273.3,327.2C273.3,330.1 272.1,332.2 269.5,332.2Z" style="fill:rgb(38,146,216);fill-rule:nonzero;"/>
        <path d="M200.7,328.2L200.7,325.2C200.7,320.6 197.8,317.4 193.4,317.4C187.6,317.4 184.3,321.5 184.3,326.5C184.3,330.7 187.4,333.7 191.7,333.7C194.2,333.7 195.9,332.4 196.3,331.1L196.3,333.3C196.3,335.9 194.8,337.4 191.6,337.4C189,337.4 187,336.6 185.9,335.5L185.7,335.5L185.7,337.5C185.7,339.6 188.2,341.4 191.9,341.4C197.6,341.4 200.6,337.4 200.9,332.9C200.9,332.3 200.8,331.3 200.8,330.6C200.7,329.8 200.7,328.8 200.7,328.2ZM192.2,329.9C190.1,329.9 188.7,328.2 188.7,325.9C188.7,323.2 190.4,321.3 192.7,321.3C194.6,321.3 196,322.7 196,325.4C196,328.2 194.4,329.9 192.2,329.9Z" style="fill:rgb(38,146,216);fill-rule:nonzero;"/>
        <path d="M129.4,317.5C124.7,317.5 122.9,319.9 122.9,321.9L122.9,323.3L123.1,323.3C123.8,322.4 125.6,321.2 128.8,321.2C131.4,321.2 132.6,322 132.6,324.5L132.6,324.7L131,324.7C124.4,324.7 122.1,327.1 122.1,330.3C122.1,333.6 125,336 129.2,336L130.1,336C134.1,336 136.9,333.4 136.9,329.6L136.9,325.5C136.9,319.4 133.4,317.5 129.4,317.5ZM132.5,329.6C132.5,331.4 131.6,332.3 129.7,332.3C127.7,332.3 126.6,331.5 126.6,330.1C126.6,328.7 127.6,327.9 131,327.9L132.5,327.9L132.5,329.6Z" style="fill:rgb(38,146,216);fill-rule:nonzero;"/>
        <path d="M119.4,324.2C119.4,319.9 116,317.3 112.3,317.3C107.2,317.3 103.6,321 103.6,327C103.6,332.5 108,336 112.4,336C117.3,336 118.9,334.3 118.9,332L118.9,330.6L118.7,330.6C117.2,331.9 115.1,332.3 113.2,332.3C110.6,332.3 108.5,330.9 108.1,328.5L111,328.5C116.9,328.5 119.4,327.5 119.4,324.2ZM108.2,325.5L108.2,324.9C108.3,322.9 109.7,321.1 111.9,321.1C114,321.1 115.3,322 115.3,323.8C115.3,325 114.4,325.5 110.2,325.5L108.2,325.5Z" style="fill:rgb(38,146,216);fill-rule:nonzero;"/>
    </g>
</svg>
