<?xml version="1.0" encoding="UTF-8"?>
<svg viewBox="0 0 410 416" xmlns="http://www.w3.org/2000/svg" xmlns:xlink="http://www.w3.org/1999/xlink">
 <defs>
  <linearGradient id="a">
   <stop stop-color="#f5f5f5" offset="0"/>
   <stop stop-color="#e5e5e5" offset="1"/>
  </linearGradient>
  <linearGradient id="b">
   <stop stop-color="#565656" offset="0"/>
   <stop stop-color="#fff" offset="1"/>
  </linearGradient>
  <linearGradient id="p" x1="87.286" x2="301.38" y1="363.66" y2="228.3" gradientUnits="userSpaceOnUse">
   <stop stop-color="#d0d0d0" offset="0"/>
   <stop stop-color="#fff" offset="1"/>
  </linearGradient>
  <linearGradient id="o" x1="99.348" x2="308.95" y1="150.36" y2="75.104" gradientUnits="userSpaceOnUse">
   <stop offset="0"/>
   <stop stop-color="#616161" offset="1"/>
  </linearGradient>
  <linearGradient id="l" x1="237.84" x2="167.13" y1="244.45" y2="90.905" gradientUnits="userSpaceOnUse">
   <stop stop-color="#3ca1f6" offset="0"/>
   <stop stop-color="#207dcc" offset="1"/>
  </linearGradient>
  <linearGradient id="j" x1="80.243" x2="208.65" y1="392.2" y2="254.95" gradientUnits="userSpaceOnUse">
   <stop stop-color="#f7f7f7" offset="0"/>
   <stop stop-color="#e1e1e1" offset="1"/>
  </linearGradient>
  <linearGradient id="n" x1="239.83" x2="171.41" y1="198.64" y2="262.28" gradientUnits="userSpaceOnUse" xlink:href="#a"/>
  <linearGradient id="m" x1="186.59" x2="325.04" y1="217.67" y2="250.5" gradientUnits="userSpaceOnUse" xlink:href="#a"/>
  <linearGradient id="k" x1="296.9" x2="188.41" y1="68.568" y2="391.43" gradientUnits="userSpaceOnUse" xlink:href="#b"/>
  <linearGradient id="i" x1="250.59" x2="331.71" y1="299.49" y2="35.842" gradientUnits="userSpaceOnUse" xlink:href="#b"/>
  <radialGradient id="h" cx="197.86" cy="202.14" r="189.36" gradientUnits="userSpaceOnUse">
   <stop offset="0"/>
   <stop offset=".81875"/>
   <stop stop-opacity="0" offset="1"/>
  </radialGradient>
  <radialGradient id="g" cx="197.86" cy="202.14" r="189.29" gradientUnits="userSpaceOnUse">
   <stop stop-color="#f7f7f7" offset="0"/>
   <stop stop-color="#c2c2c2" offset="1"/>
  </radialGradient>
  <radialGradient id="f" cx="295.91" cy="-341.76" r="189.29" gradientTransform="matrix(.96168 .49722 -.36946 .71457 -93.626 109.93)" gradientUnits="userSpaceOnUse">
   <stop stop-color="#fff" offset="0"/>
   <stop stop-color="#fff" stop-opacity=".56471" offset=".5"/>
   <stop stop-color="#fff" stop-opacity="0" offset="1"/>
  </radialGradient>
  <radialGradient id="e" cx="197.86" cy="630.49" r="189.29" gradientTransform="matrix(1.071 0 0 .66819 -14.045 -29.86)" gradientUnits="userSpaceOnUse">
   <stop stop-color="#30a9ec" offset="0"/>
   <stop stop-color="#0a4c71" stop-opacity="0" offset="1"/>
  </radialGradient>
  <radialGradient id="d" cx="197.86" cy="202.14" r="189.29" gradientUnits="userSpaceOnUse">
   <stop stop-color="#266080" offset="0"/>
   <stop stop-color="#112d3c" offset="1"/>
  </radialGradient>
  <radialGradient id="c" cx="293.05" cy="160.01" r="189.29" gradientTransform="matrix(2.0751 .55601 -.63991 2.3882 -187.16 -314.92)" gradientUnits="userSpaceOnUse">
   <stop stop-color="#9b9b9b" offset="0"/>
   <stop stop-color="#454545" offset="1"/>
  </radialGradient>
 </defs>
 <g transform="translate(-5 -13)">
  <path transform="matrix(1.083 0 0 1.083 -4.283 5.0755)" d="m387.14 202.14a189.29 189.29 0 1 1 -378.57 0 189.29 189.29 0 1 1 378.57 0z" fill="url(#h)" fill-rule="evenodd"/>
  <path transform="matrix(1.0566 0 0 1.0566 5.9434 -.58488)" d="m387.14 202.14a189.29 189.29 0 1 1 -378.57 0 189.29 189.29 0 1 1 378.57 0z" fill="url(#i)" fill-rule="evenodd"/>
  <path transform="matrix(1.0355 0 0 1.0355 10.125 3.6868)" d="m387.14 202.14a189.29 189.29 0 1 1 -378.57 0 189.29 189.29 0 1 1 378.57 0z" fill="#b1b1b1" fill-rule="evenodd"/>
  <path transform="matrix(1.0002 .268 -.268 1.0002 71.28 -42.207)" d="m387.14 202.14a189.29 189.29 0 1 1 -378.57 -1e-5l189.29 1e-5z" fill="url(#c)" fill-rule="evenodd"/>
  <path transform="matrix(-1.0002 -.268 .268 -1.0002 358.72 468.21)" d="m387.14 202.14a189.29 189.29 0 1 1 -378.57 -1e-5l189.29 1e-5z" fill="url(#j)" fill-rule="evenodd"/>
  <path transform="matrix(.87698 0 0 .87698 41.483 35.725)" d="m387.14 202.14a189.29 189.29 0 1 1 -378.57 0 189.29 189.29 0 1 1 378.57 0z" fill="url(#k)" fill-rule="evenodd"/>
  <path transform="matrix(.84528 0 0 .84528 47.755 42.132)" d="m387.14 202.14a189.29 189.29 0 1 1 -378.57 0 189.29 189.29 0 1 1 378.57 0z" fill="url(#d)" fill-rule="evenodd"/>
  <path transform="matrix(.81887 0 0 .81887 52.981 47.472)" d="m387.14 202.14a189.29 189.29 0 1 1 -378.57 0 189.29 189.29 0 1 1 378.57 0z" fill="url(#e)" fill-rule="evenodd"/>
  <path transform="matrix(.79245 0 0 .79245 58.208 52.811)" d="m387.14 202.14a189.29 189.29 0 1 1 -378.57 0 189.29 189.29 0 1 1 378.57 0z" fill="url(#f)" fill-rule="evenodd"/>
  <path d="m140.88 87.493-4.3003 2.5741 68.978 114.87c-2.8398 2.5255-4.6131 6.2032-4.543 10.298 0.12769 7.4509 6.2784 13.394 13.729 13.267 1.5731-0.02696 3.0589-0.33823 4.4547-0.85771l14.478 24.13 4.269-2.5735-14.478-24.13c2.8398-2.5255 4.6131-6.2032 4.543-10.298-0.12769-7.4509-6.2784-13.394-13.729-13.267-1.5731 0.02696-3.0589 0.33823-4.4547 0.85771l-68.947-114.87z" fill-opacity=".16571" fill-rule="evenodd"/>
  <path d="m143.56 84.25-4.3438 2.5 67 116.03c-2.8826 2.4765-4.7188 6.1232-4.7188 10.219 0 7.452 6.048 13.5 13.5 13.5 1.5733 0 3.0643-0.28577 4.4688-0.78125l14.062 24.375 4.3125-2.5-14.062-24.375c2.8826-2.4765 4.7188-6.1232 4.7188-10.219 0-7.452-6.048-13.5-13.5-13.5-1.5733 0-3.0643 0.28577-4.4688 0.78125l-66.969-116.03z" fill="url(#l)" fill-rule="evenodd"/>
  <path d="m215.2 202.64c-4.2917-0.07309-8.0726 2.1275-10.251 5.4825l-16.36-4.6855-1.9272 6.7182 16.36 4.6855c0.10828 6.4359 5.2847 11.685 11.77 11.796 4.2975 0.07319 8.1053-2.1193 10.282-5.482l115.7 33.131 1.8959-6.7187-115.7-33.131c-0.10828-6.4359-5.2847-11.685-11.77-11.796z" fill-opacity=".16571" fill-rule="evenodd"/>
  <path d="m215 201c-4.2923 0-8.0352 2.2647-10.156 5.6562l-16.438-4.4062-1.8125 6.75 16.438 4.4062c0.21786 6.4331 5.4829 11.594 11.969 11.594 4.2982 0 8.068-2.257 10.188-5.6562l116.25 31.156 1.7812-6.75-116.25-31.156c-0.21786-6.4331-5.4829-11.594-11.969-11.594z" fill="url(#m)" fill-rule="evenodd"/>
  <path d="m233.43 192.69-12.673 13.013c-1.6908-1.1102-3.7248-1.7321-5.8981-1.7033-5.7955 0.07677-10.437 4.8427-10.36 10.638 0.02879 2.1733 0.70429 4.1901 1.8589 5.8509l-54.113 55.565 2.8812 2.8058 54.113-55.565c1.6908 1.1102 3.7248 1.7321 5.8981 1.7033 5.7955-0.07677 10.437-4.8427 10.36-10.638-0.02879-2.1733-0.70429-4.1901-1.8589-5.8509l12.673-13.013-2.8812-2.8058z" fill-opacity=".16571" fill-rule="evenodd"/>
  <path d="m233.72 191.44-12.844 12.844c-1.6759-1.1325-3.7015-1.7812-5.875-1.7812-5.796 0-10.5 4.704-10.5 10.5 0 2.1735 0.64873 4.1991 1.7812 5.875l-54.844 54.844 2.8438 2.8438 54.844-54.844c1.6759 1.1325 3.7015 1.7812 5.875 1.7812 5.796 0 10.5-4.704 10.5-10.5 0-2.1735-0.64873-4.1991-1.7812-5.875l12.844-12.844-2.8438-2.8438z" fill="url(#n)" fill-rule="evenodd"/>
  <path transform="matrix(.042264 0 0 .042264 206.64 204.46)" d="m387.14 202.14a189.29 189.29 0 1 1 -378.57 0 189.29 189.29 0 1 1 378.57 0z" fill="#9c9c9c" fill-rule="evenodd"/>
  <path transform="matrix(.036981 0 0 .036981 207.68 205.52)" d="m387.14 202.14a189.29 189.29 0 1 1 -378.57 0 189.29 189.29 0 1 1 378.57 0z" fill="url(#g)" fill-rule="evenodd"/>
  <path d="m213.12501,22.68752-7.46875.46875 .03125.75c.42166.01393.76926.0387 1.03125.0625 .28068.00264.4916.02384.65625.09375 .18336.04875.33768.14526.40625.28125 .08727.11483.11011.29173.125.53125 .02848.45913-.20568,1.14704-.75,2.0625-.52562.89429-1.30506,2.09967-2.3125,3.625l-3.1875-4.3125c-.32792-.44051-.48265-.78302-.5-1.0625-.01983-.31937.05905-.56661.25-.71875 .2109-.15334.58726-.25907 1.125-.3125 .05987-.0037.3498-.05037.90625-.125l-.03125-.71875-10.375.625 .0625.75c.54144.00649.96819.11153 1.28125.3125s.71751.63107 1.21875,1.28125l6.46875,8.34375-4.8125,6.9375c-.42443.58742-.85696,1.01446-1.28125,1.28125s-1.01638.46806-1.75.59375l.0625.75 7.46875-.46875-.03125-.75c-.92443-.04281-1.56829-.14386-1.9375-.28125-.3505-.15859-.53897-.40198-.5625-.78125-.01983-.31938.12788-.8264.46875-1.46875s1.0388-1.75728 2.0625-3.34375l1.03125-1.59375 3.3125,4.6875c.46007.63272.72396,1.14331.75,1.5625 .03096.49904-.46572.81319-1.5.9375-.03993.00248-.32723.05287-.84375.125l.03125.71875 10.1875-.625-.03125-.75c-.52026.01225-.96587-.09788-1.34375-.375-.35919-.29832-.93325-.96667-1.71875-2l-6-8.15625 2.1875-3.46875c1.20718-1.85834 2.12346-3.06509 2.75-3.625s1.51333-.92454 2.625-1.09375l-.0625-.75zm3.53125.1875-.03125.75c1.07645.11861 1.78721.31161 2.15625.625 .38972.29415.58968.83425.5625,1.59375l-.53125,14.5c-.0272.75952-.23522,1.29628-.625,1.5625-.36979.26694-1.09589.40889-2.21875.46875l-.03125.75 10.46875.375 .03125-.75c-1.13642-.12074-1.88027-.33158-2.25-.625s-.52792-.81425-.5-1.59375l.5-14.5c.0279-.77948.24576-1.33949.65625-1.625s1.18051-.40562 2.28125-.40625l.03125-.75-10.5-.375zm12.96875.53125-.0625.75c1.06576.19224 1.77837.44327 2.125.78125 .36861.32022.51676.86916.4375,1.625l-1.53125,14.4375c-.07928.75586-.31162,1.26117-.71875,1.5-.38725.24092-1.15693.36113-2.28125.34375l-.0625.75 10.4375,1.09375 .0625-.75c-1.12544-.19848-1.83879-.46314-2.1875-.78125s-.48763-.88051-.40625-1.65625l1.5-14.4375c.08136-.77573.35213-1.2746.78125-1.53125s1.18306-.3562 2.28125-.28125l.09375-.75-10.46875-1.09375zm-103.34375,22.21875-9.09375,5.1875 .34375.65625c.97801-.46509 1.70883-.66629 2.1875-.59375 .48617.0453.93629.40216 1.3125,1.0625l7.1875,12.59375c.37622.66035.47282,1.22486.28125,1.65625-.17419.42149-.7326.95245-1.65625,1.59375l.34375.65625 9.15625-5.21875-.375-.625c-1.03013.49481-1.78124.71144-2.25.65625s-.89514-.41601-1.28125-1.09375l-7.1875-12.625c-.38611-.67771-.48029-1.26006-.28125-1.71875s.78278-.98321 1.71875-1.5625l-.40625-.625zm188.3125,5.46875-.40625.625c.86063.65734 1.377,1.22859 1.53125,1.6875 .18189.45313.0404.9886-.375,1.625l-7.90625,12.15625c-.41543.63641-.8725.97324-1.34375,1-.45451.03769-1.19497-.22154-2.1875-.75l-.40625.625 8.8125,5.75 .40625-.625c-.9109-.69013-1.45986-1.24532-1.625-1.6875s-.0201-1.00309.40625-1.65625l7.9375-12.15625c.42634-.65315.87604-.99867 1.375-1.03125s1.21325.24473 2.15625.8125l.40625-.625-8.78125-5.75zm-200.5,1.4375-6.125,4.3125 .4375.625c.36591-.21.63967-.3824.875-.5 .24008-.14543.47943-.22282.65625-.25 .18157-.055.33889-.04833.46875.03125 .13463.05174.23633.17914.375.375 .26578.37547.41875,1.09136.4375,2.15625 .02349,1.03706-.00827,2.45407-.0625,4.28125l-4.9375-1.96875c-.51064-.20209-.83822-.4277-1-.65625-.1849-.26115-.26984-.4889-.1875-.71875 .09867-.24136.38332-.54665.8125-.875 .04898-.03465.2848-.20627.71875-.5625l-.4375-.625-8.46875,5.96875 .4375.65625c.46387-.27935.87804-.41246 1.25-.40625s.95041.14829 1.71875.4375l9.875,3.6875-.46875,8.4375c-.05188.72285-.1858,1.29989-.40625,1.75s-.56725.94465-1.125,1.4375l.4375.59375 6.09375-4.3125-.4375-.625c-.80867.44995-1.39498.70384-1.78125.78125-.38151.04954-.6867-.06484-.90625-.375-.1849-.26118-.32694-.77439-.375-1.5s-.0359-2.01851 0-3.90625l.03125-1.90625 5.28125,2.1875c.72414.29602 1.22608.65721 1.46875,1 .2889.4081.03291.91264-.78125,1.5625-.03266.02312-.25496.19816-.65625.53125l.4375.625 8.3125-5.90625-.4375-.59375c-.43599.28414-.8766.38061-1.34375.34375-.46241-.06472-1.31959-.31576-2.53125-.78125l-9.34375-3.78125 .03125-4.09375c.04889-2.21547.19926-3.72547.4375-4.53125s.79989-1.58373 1.65625-2.3125l-.4375-.59375zm261.3125,57.81251-.625.40625c.49237.96454.68406,1.67571.625,2.15625-.0316.48724-.3505.91788-1,1.3125l-12.4375,7.5625c-.64954.39462-1.18837.49188-1.625.3125-.4262-.16227-.95799-.68848-1.625-1.59375l-.65625.375 5.46875,8.96875 .625-.375c-.52356-1.01584-.76076-1.77986-.71875-2.25s.42714-.9075 1.09375-1.3125l12.40625-7.53125c.66658-.40501 1.22338-.49858 1.6875-.3125s.98837.73693 1.59375,1.65625l.65625-.375-5.46875-9zm-321.09375.71875-3.6875,6.53125 .65625.375c.24103-.34626.46253-.60561.625-.8125 .15489-.23411.28927-.39985.4375-.5 .14064-.12733.28609-.20393.4375-.1875 .14383-.01077.32216.03847.53125.15625 .40077.22584.84038.82654 1.3125,1.78125 .46454.92749 1.08051,2.23121 1.8125,3.90625l-5.375.3125c-.54802.03558-.94355-.0188-1.1875-.15625-.27878-.15708-.4137-.35076-.4375-.59375-.01396-.26038.0961-.61345.34375-1.09375 .02947-.05225.16621-.33621.40625-.84375l-.65625-.375-5.09375,9.03125 .65625.375c.29995-.45081.62983-.75288.96875-.90625s.90053-.24555 1.71875-.3125l10.53125-.90625 3.1875,7.84375c.26207.67568.3819,1.24886.375,1.75s-.14393,1.09727-.4375,1.78125l.65625.375 3.6875-6.53125-.65625-.375c-.53875.75244-.96513,1.23365-1.28125,1.46875-.32372.20786-.66894.2178-1,.03125-.27879-.15708-.58389-.55207-.9375-1.1875s-.91305-1.80932-1.6875-3.53125l-.78125-1.75 5.71875-.25c.78118-.04191 1.35284.04384 1.71875.25 .4356.24547.42701.84572-.03125,1.78125-.01964.03485-.12334.27733-.34375.75l.65625.375 5-8.875-.65625-.375c-.2727.44323-.62442.7399-1.0625.90625-.4457.13914-1.33064.24665-2.625.34375l-10.0625.59375-1.71875-3.71875c-.90278-2.02378-1.43345-3.45096-1.5625-4.28125s.03733-1.75638.5-2.78125l-.65625-.375zm327.75,10.40625-.65625.375c.42587.99571.59149,1.71208.5,2.1875-.06457.48397-.41899.90032-1.09375,1.25l-12.875,6.6875c-.67477.3497-1.23281.42729-1.65625.21875-.41426-.19081-.95836-.77035-1.5625-1.71875l-.65625.375 4.84375,9.28125 .65625-.34375c-.45351-1.04898-.63625-1.81503-.5625-2.28125s.46374-.85985 1.15625-1.21875l12.90625-6.6875c.6925-.35891 1.26832-.43585 1.71875-.21875s.92708.79179 1.46875,1.75l.65625-.3125-4.84375-9.34375zm22.375,75.21875-.75.03125c-.0166,1.08283-.19156,1.82183-.46875,2.21875-.25611.41571-.74132.64296-1.5.6875l-14.5.84375c-.75869.04453-1.29198-.07456-1.59375-.4375-.30062-.34299-.55332-1.10653-.71875-2.21875l-.75.0625 .65625,10.46875 .75-.03125c.01308-1.14273.14898-1.91677.40625-2.3125s.75259-.61056 1.53125-.65625l14.46875-.875c.77863-.04569 1.36456.1495 1.6875.53125s.5206,1.09172.625,2.1875h.75l-.59375-10.5zm-19.625,12.75-.09375,10.5 .75.03125c.09068-1.13922.27894-1.90391.5625-2.28125s.84503-.53858 1.625-.53125l14.5.09375c.77996.00732 1.29748.22219 1.59375.625s.47032,1.14967.5,2.25l.75.03125 .09375-10.5-.75-.03125c-.09014,1.07921-.29022,1.81033-.59375,2.1875-.28377.39735-.7713.60087-1.53125.59375l-14.53125-.125c-.75998-.00714-1.28609-.21114-1.5625-.59375-.2766-.36261-.47302-1.09786-.5625-2.21875l-.75-.03125zm-.125,11.625-.8125,10.46875 .75.03125c.16849-1.13032.41002-1.83043.71875-2.1875s.81611-.52947 1.59375-.46875l14.5,1.125c.77761.06071 1.32578.32786 1.59375.75s.32698,1.18144.28125,2.28125l.75.03125 .84375-10.4375-.75-.09375c-.16383,1.0705-.42135,1.80075-.75,2.15625-.31032.37698-.83609.52791-1.59375.46875l-14.46875-1.09375c-.7577-.05917-1.25044-.31811-1.5-.71875-.25113-.38071-.39372-1.12561-.40625-2.25l-.75-.0625z" fill="url(#o)"/>
  <path d="m25.46876,195.68752-.3125,7.53125h.75c.05625-.41811.13748-.74172.1875-1 .03085-.279.07013-.49946.15625-.65625 .06694-.17752.1703-.2892.3125-.34375 .12302-.07527.3227-.10303.5625-.09375 .45967.01782 1.08141.33515 1.9375.96875 .83691.61287 1.98995,1.50055 3.40625,2.65625l-4.625,2.71875c-.47125.28196-.84519.41709-1.125.40625-.31974-.0124-.55533-.1072-.6875-.3125-.13136-.22523-.18841-.61587-.1875-1.15625 .00234-.05994.0183-.37637 0-.9375h-.75l-.4375,10.34375 .75.0625c.0609-.53805.20607-.98999.4375-1.28125s.70897-.62919 1.40625-1.0625l8.96875-5.625 6.40625,5.53125c.54177.48135.90222.95731 1.125,1.40625s.38622,1.00746.4375,1.75l.75.0625 .28125-7.53125h-.75c-.13555.91546-.29493,1.52148-.46875,1.875-.19303.33277-.49528.51472-.875.5-.31976-.01239-.73893-.25252-1.34375-.65625s-1.6495-1.16574-3.125-2.34375l-1.5-1.1875 4.96875-2.84375c.67577-.39412 1.20532-.57875 1.625-.5625 .49963.01938.79282.55223.8125,1.59375-.00155.03999.01141.3226.03125.84375h.75l.375-10.15625-.75-.0625c-.04012.51885-.21754.9644-.53125,1.3125-.33293.32738-1.04918.82238-2.15625,1.5l-8.6875,5.125-3.25-2.5c-1.72754-1.38793-2.81843-2.44533-3.3125-3.125s-.75593-1.56444-.8125-2.6875l-.75-.0625zm19.71875,22.0625-.75.03125c-.0121,1.14275-.14933,1.91654-.40625,2.3125s-.75263.64114-1.53125.6875l-14.5.84375c-.7786.04638-1.33299-.11853-1.65625-.5s-.51967-1.12307-.625-2.21875l-.75.0625 .625,10.46875 .75-.03125c.01568-1.08285.16064-1.85283.4375-2.25 .25575-.41593.74136-.64232 1.5-.6875l14.5-.84375c.75866-.04517 1.29166.10606 1.59375.46875 .3009.3427.55236,1.07544.71875,2.1875l.75-.0625-.65625-10.46875zm10.3125,52.0625-.6875.25c.33607,1.09227.4368,1.88839.3125,2.34375s-.55363.78151-1.28125,1.0625l-13.5625,5.25c-.72761.281-1.29476.29631-1.71875.03125s-.81638-.92577-1.25-1.9375l-.71875.28125 3.75,9.8125 .71875-.28125c-.31443-1.03631-.39294-1.75619-.25-2.21875 .11711-.47402.5098-.88247 1.21875-1.15625l13.5625-5.21875c.70897-.2738 1.2894-.28486 1.6875-.03125 .3909.23495.81572.86624 1.3125,1.875l.6875-.28125-3.78125-9.78125zm4.21875,10.78125-.65625.3125c.41046,1.06655.56141,1.84967.46875,2.3125s-.48094.88834-1.1875,1.21875l-13.15625,6.125c-.70654.33041-1.27753.36024-1.71875.125s-.93526-.83302-1.4375-1.8125l-.65625.3125 4.4375,9.53125 .65625-.34375c-.38503-1.01219-.51701-1.71622-.40625-2.1875 .0842-.48098.49908-.89679 1.1875-1.21875l13.15625-6.15625c.68845-.32197 1.24164-.3506 1.65625-.125 .40614.2075.87246.77783 1.4375,1.75l.6875-.3125-4.46875-9.53125zm309.84375,2.9375-4.65625,9.40625 .6875.375c.57598-.98704 1.0808-1.6268 1.5-1.84375s.95669-.12626 1.65625.21875l13.0625,6.4375c.69955.345 1.06409.7273 1.15625,1.21875s-.08061,1.24572-.53125,2.25l.65625.3125 4.65625-9.375-.65625-.34375c-.54943.93324-1.03162,1.51061-1.46875,1.71875-.42804.23489-1.00591.1799-1.6875-.15625l-13-6.4375c-.68161-.33614-1.10447-.72284-1.1875-1.1875-.09191-.44674.06305-1.20129.46875-2.25l-.65625-.34375zm-304.875,7.5625-.6875.375c.48286,1.03579.7481,1.78189.6875,2.25s-.47409.90303-1.15625,1.28125l-12.65625,7.03125c-.68214.37824-1.2624.48559-1.71875.28125s-.99408-.77613-1.5625-1.71875l-.65625.34375 5.125,9.1875 .625-.375c-.45373-.9833-.64058-1.70971-.5625-2.1875 .05093-.48562.39785-.91272 1.0625-1.28125l12.71875-7.03125c.66466-.36853 1.2271-.4778 1.65625-.28125 .41945.17905.93193.7565 1.5625,1.6875l.65625-.375-5.09375-9.1875zm294.0625,11.34375-.40625.6875 11.34375,15.09375c.60794.80223.94557,1.44478 1.03125,1.875 .07508.44712-.04785,1.03488-.375,1.75l.625.375 3.375-5.4375-.625-.375c-.63849.87472-1.1326,1.40653-1.4375,1.59375s-.65497.15981-1.0625-.09375c-.33965-.21134-.84527-.7778-1.5-1.65625l-6.375-8.4375 10.71875,1.78125c1.16001.17996 1.88182.34106 2.1875.53125 .56037.34866.57151,1.00579.0625,1.9375-.0317.05093-.15451.3444-.4375.875l.625.40625 5.3125-8.59375-.625-.375c-.47586.57546-.86709.95154-1.21875,1.0625s-1.0093.07928-1.90625-.03125l-19.3125-2.96875zm-282.6875,6.5-18.40625,4.34375c-.97801.238-1.69628.31157-2.125.21875-.44005-.10924-.91191-.4463-1.4375-1.03125l-.59375.4375 3.625,5.25 .59375-.4375c-.54793-.93411-.82476-1.55203-.875-1.90625s.10508-.66471.5-.9375c.32915-.22733 1.02718-.4682 2.09375-.71875l10.28125-2.46875-5.875,9.09375c-.6272.99228-1.07877,1.57666-1.375,1.78125-.54304.3751-1.1607.15058-1.8125-.6875-.03407-.04937-.21983-.31032-.59375-.78125l-.625.4375 5.71875,8.28125 .65625-.40625c-.33825-.6657-.53832-1.19572-.5-1.5625s.29126-.94006.75-1.71875l10.4375-16.53125-.4375-.65625zm33.53125,37.375-.4375.59375c.86801.74334 1.39283,1.32999 1.53125,1.78125s-.03535.99849-.5,1.625l-8.625,11.65625c-.46463.6265-.96874.9348-1.46875.9375s-1.18637-.28312-2.09375-.90625l-.46875.59375 8.4375,6.25 .4375-.59375c-.81979-.70764-1.27973-1.31393-1.40625-1.78125-.15446-.46318-.01522-.98332.4375-1.59375l8.65625-11.6875c.45273-.61043.90299-.90771 1.375-.90625 .45595-.01045 1.16585.25689 2.125.84375l.46875-.59375-8.46875-6.21875zm9.375,6.875-.4375.625c.91699.68204 1.48718,1.24681 1.65625,1.6875s.04555.99933-.375,1.65625l-7.8125,12.21875c-.42054.65692-.90761.99424-1.40625,1.03125s-1.20824-.22187-2.15625-.78125l-.40625.625 8.84375,5.6875 .375-.625c-.86644-.64969-1.3417-1.22997-1.5-1.6875-.1859-.45148-.09725-.98493.3125-1.625l7.84375-12.21875c.40976-.64008.8415-1.00031 1.3125-1.03125 .45416-.0417 1.19033.19912 2.1875.71875l.40625-.625-8.84375-5.65625zm187.34375,3.1875-.65625.4375 3.625,18.53125c.19871.98674.23489,1.70034.125,2.125-.12676.43533-.48824.90446-1.09375,1.40625l.40625.625 5.40625-3.40625-.40625-.625c-.95525.51015-1.61281.77649-1.96875.8125s-.64946-.15699-.90625-.5625c-.21398-.33798-.44854-1.04927-.65625-2.125l-2.0625-10.375 8.875,6.25c.96641.66636 1.5574,1.16458 1.75,1.46875 .35307.5576.08223,1.13226-.78125,1.75-.0507.03209-.32699.23897-.8125.59375l.40625.625 8.53125-5.375-.40625-.65625c-.67871.31137-1.19756.45922-1.5625.40625s-.92777-.32301-1.6875-.8125l-16.125-11.09375zm-168.90625,7.09375-14.0625,12.5625c-.74782.67373-1.35984,1.06568-1.78125,1.1875-.43916.11272-1.00971.04661-1.75-.21875l-.34375.6875 5.6875,2.875 .34375-.65625c-.92567-.56207-1.50639-.96205-1.71875-1.25s-.2181-.66619 0-1.09375c.1818-.35632.71144-.89819 1.53125-1.625l7.875-7.0625-.875,10.78125c-.08102,1.17107-.21138,1.92931-.375,2.25-.29991.58789-.93474.67825-1.90625.25-.05343-.02726-.35358-.16922-.90625-.40625l-.34375.65625 9,4.625 .3125-.6875c-.61373-.42537-.98464-.81525-1.125-1.15625s-.19037-.9719-.15625-1.875l1.3125-19.46875-.71875-.375zm86.96875,18.5-.8125.03125-5.84375,17.96875c-.3074.95847-.60333,1.62023-.90625,1.9375-.32287.31835-.88297.54444-1.65625.6875l.03125.75 6.375-.375-.03125-.75c-1.08276-.02012-1.76536-.07674-2.09375-.21875s-.53592-.45826-.5625-.9375c-.02214-.39941.12584-1.11568.46875-2.15625l3.28125-10.0625 4.6875,9.78125c.51909,1.05285.79256,1.73428.8125,2.09375 .03654.65898-.47618,1.0689-1.53125,1.1875-.05989.0033-.37188.02057-.96875.09375l.03125.75 10.0625-.5625-.0625-.75c-.7444-.0589-1.26964-.18214-1.5625-.40625s-.63768-.73356-1.0625-1.53125l-8.65625-17.53125zm-21.9375.4375-.03125.75c1.13556.12851 1.88228.3603 2.25.65625s.53327.84571.5,1.625l-.59375,14.5c-.03324.77927-.27507,1.27981-.6875,1.5625s-1.14926.41316-2.25.40625l-.0625.75 10.5.46875 .03125-.75c-1.0756-.12599-1.82062-.34035-2.1875-.65625-.38771-.29681-.5324-.8032-.5-1.5625l.59375-14.53125c.03241-.75932.26466-1.26771.65625-1.53125 .3716-.26439 1.0955-.41658 2.21875-.46875l.0625-.75-10.5-.46875z" fill="url(#p)"/>
 </g>
</svg>
