<?xml version="1.0" encoding="UTF-8" standalone="no"?>
<!DOCTYPE svg PUBLIC "-//W3C//DTD SVG 1.1//EN" "http://www.w3.org/Graphics/SVG/1.1/DTD/svg11.dtd">
<svg width="100%" height="100%" viewBox="0 0 1643 1501" version="1.1" xmlns="http://www.w3.org/2000/svg" xmlns:xlink="http://www.w3.org/1999/xlink" xml:space="preserve" xmlns:serif="http://www.serif.com/" style="fill-rule:evenodd;clip-rule:evenodd;stroke-linejoin:round;stroke-miterlimit:2;">
    <g transform="matrix(1,0,0,1,-295,-229)">
        <g>
            <path d="M1575.14,1015.7C1575.14,1345.18 1307.12,1613.25 977.634,1613.29C647.912,1613.34 379.955,1345.41 379.96,1015.69C379.966,686.187 648.043,418.112 977.55,418.112C1132.32,418.112 1273.53,477.262 1379.78,574.132C1396.19,589.092 1411.76,604.942 1426.41,621.622C1432.94,629.038 1439.28,636.614 1445.43,644.346C1447.13,646.483 1446.72,649.606 1444.54,651.253L1347.41,724.699C1345.3,726.298 1342.3,725.915 1340.66,723.837C1339.12,721.9 1336.91,719.169 1333.83,715.532C1319.07,698.032 1303.05,681.632 1285.9,666.482C1204.34,594.388 1097.44,550.348 980.451,549.631C721.667,548.046 511.958,756.022 511.471,1014.81C510.987,1272.22 720.253,1481.78 977.55,1481.78C1232.16,1481.78 1439.61,1285.8 1443.44,1032.23C1443.49,1028.61 1445.12,1025.21 1447.93,1022.94C1467.37,1007.23 1544.92,944.437 1564.06,928.942C1565.95,927.41 1568.8,928.517 1569.14,930.927C1573.1,958.63 1575.14,986.933 1575.14,1015.7Z" style="fill:rgb(110,187,64);fill-rule:nonzero;"/>
            <path d="M1812.65,684.689C1717.01,726.139 1619.82,786.869 1527.97,854.469C1488.8,883.289 1450.6,913.359 1413.91,943.729C1198.15,1122.28 1034.54,1310.79 1032,1313.75C1017.3,1330.79 995.972,1340.46 973.702,1340.46C971.271,1340.46 968.832,1340.34 966.381,1340.11C941.531,1337.74 919.372,1323.45 906.952,1301.8C828.341,1164.79 715.731,1043.84 714.611,1042.63C685.562,1011.6 687.171,962.899 718.211,933.849C749.251,904.819 797.961,906.419 826.992,937.458C831.071,941.819 909.062,1025.59 984.832,1136.77C1062.4,1054.17 1197.98,917.719 1358.32,790.319C1392.49,763.159 1427.79,736.419 1463.89,710.699C1556.27,644.869 1653.91,585.719 1751.43,543.458C1790.43,526.539 1835.74,544.458 1852.65,583.469C1869.55,622.458 1851.65,667.779 1812.65,684.689Z" style="fill:rgb(110,187,64);fill-rule:nonzero;"/>
        </g>
    </g>
</svg>
